<svg xmlns="http://www.w3.org/2000/svg" viewBox="0 0 512 512" role="img" aria-labelledby="title desc">
  <title id="title">Venusaur fan-art battle illustration</title>
  <desc id="desc">A broad blue-green quadruped carrying a huge spotted pink flower supported by a thick trunk and wide leaves.</desc>
  <defs>
    <linearGradient id="skin" x1="0" y1="0" x2="1" y2="1">
      <stop offset="0" stop-color="#65b9a4"/>
      <stop offset="1" stop-color="#2c796d"/>
    </linearGradient>
    <linearGradient id="petal" x1="0.2" y1="0" x2="0.8" y2="1">
      <stop offset="0" stop-color="#ff8e9e"/>
      <stop offset="1" stop-color="#ca405d"/>
    </linearGradient>
  </defs>
  <g stroke="#17363e" stroke-width="13" stroke-linejoin="round" stroke-linecap="round">
    <path fill="#347c43" d="M119 229c-54-17-84-47-91-89 48-6 90 8 124 43-10-48 0-88 32-119 32 29 48 68 48 115 22-42 55-69 99-80 9 45-2 85-35 118 42-24 83-27 122-10-18 45-53 72-104 83Z"/>
    <path fill="#59a955" d="M129 217c-29-31-57-51-87-61m143 58c-3-54-3-93-1-124m62 126c24-44 47-76 70-94m5 110c35-13 65-16 90-10"/>
    <path fill="#855035" d="M217 233c-10-73 14-127 73-162 56 36 78 91 64 165Z"/>
    <path fill="url(#petal)" d="M286 84c-35-58-83-68-119-36-20 18-19 47 0 73-48-13-84 9-84 45 0 35 30 53 74 53-33 30-33 66 0 83 34 18 74-2 94-44 15 45 53 66 89 51 34-15 39-52 11-84 44 6 76-15 78-50 2-36-31-58-77-50 19-38 8-72-25-85-15-6-29-4-41 4Z"/>
    <circle cx="258" cy="161" r="57" fill="#f4b13e"/>
    <path fill="#fff2dc" stroke="none" d="m179 84 20 15-12 24-25-9Zm-30 104 27 4 3 26-28 8Zm49 68 24-15 21 20-17 24Zm145-9 20 19-16 23-25-15Zm44-79 25 12-5 27-28-4Zm-80-91 19-21 24 14-11 27Z"/>
    <path fill="url(#skin)" d="M74 280c45-62 131-87 228-59 84 24 136 84 132 157-4 75-72 111-180 111-112 0-197-37-211-105-8-39 2-74 31-104Z"/>
    <path fill="url(#skin)" d="m82 306-45-49 65 4 33-44 25 70"/>
    <path fill="url(#skin)" d="M86 377c-35 12-50 40-45 69 4 29 29 44 63 39 30-4 45-21 49-51l7-46"/>
    <path fill="url(#skin)" d="M310 392c-16 31-8 66 20 84 28 18 68 9 81-20 13-29 1-57-30-79"/>
    <path fill="#d8e6cd" d="m72 480 19-19 21 14m231 8 18-21 22 15"/>
    <path fill="#205c61" stroke="none" d="m119 321 32-16 28 24-35 20Zm97-67 31-10 23 29-36 13Zm117 52 32-14 26 25-37 20Zm-161 96 36-14 25 27-38 18Z"/>
    <path fill="#f5f3e8" d="M121 344c15-17 36-18 52-2-1 32-11 46-29 46-17 0-25-15-23-44Zm102-7c18-15 39-12 51 7-4 31-15 45-32 42-18-3-24-18-19-49Z"/>
    <ellipse cx="147" cy="361" rx="11" ry="16" fill="#b62e42" stroke="none"/>
    <ellipse cx="248" cy="358" rx="11" ry="16" fill="#b62e42" stroke="none"/>
    <path fill="none" d="M149 414c24 14 51 13 77-3"/>
    <path fill="#f7eddd" d="m172 416 14 22 13-23m18-2 13 19 12-24"/>
  </g>
</svg>
