<svg xmlns="http://www.w3.org/2000/svg" viewBox="0 0 512 512" role="img" aria-labelledby="title desc">
  <title id="title">Charmander fan-art battle illustration</title>
  <desc id="desc">A small orange bipedal lizard with a cream belly, bright blue eyes, clawed feet, and a flame at the end of its tail.</desc>
  <defs>
    <linearGradient id="skin" x1="0" y1="0" x2="0.9" y2="1">
      <stop offset="0" stop-color="#ff9a3c"/>
      <stop offset="1" stop-color="#e96223"/>
    </linearGradient>
    <radialGradient id="flame" cx="0.5" cy="0.8" r="0.8">
      <stop offset="0" stop-color="#fff26c"/>
      <stop offset="0.45" stop-color="#ffb325"/>
      <stop offset="1" stop-color="#eb4b22"/>
    </radialGradient>
  </defs>
  <g stroke="#4b2b28" stroke-width="14" stroke-linejoin="round" stroke-linecap="round">
    <path fill="url(#skin)" d="M315 358c60 12 101 1 124-34 22-33 26-71 12-112"/>
    <path fill="url(#flame)" d="M448 220c-32-34-34-73-5-116 4 27 17 42 39 48 22 28 23 55 3 82-11 15-28 19-37-14Z"/>
    <path fill="url(#skin)" d="M177 177c-13-73 33-126 99-132 64-6 115 39 116 102 1 44-21 73-54 91 41 42 48 99 22 150-26 52-78 79-137 66-60-13-99-61-98-123 0-40 15-73 45-99-1-18 2-36 7-55Z"/>
    <path fill="#ffd89c" d="M201 250c38-32 93-23 119 21 25 44 19 109-17 143-29 27-74 28-104 0-42-39-41-126 2-164Z"/>
    <path fill="url(#skin)" d="M162 283c-29-8-53 7-65 37-9 23-4 45 15 61 17 14 38 8 53-13l29-42"/>
    <path fill="url(#skin)" d="M327 276c26-10 49 1 64 29 12 22 10 44-5 62-16 19-39 17-56-4l-29-38"/>
    <path fill="url(#skin)" d="M176 413c-23 6-37 23-38 47 0 22 17 34 43 32 22-2 38-15 47-38m82-38c22 4 38 20 41 43 3 22-13 35-39 35-23 0-39-12-50-34"/>
    <path fill="#fff5dc" d="m158 482 13-22 12 22 17-21 12 20m70 4 13-23 14 21 16-19 11 18"/>
    <path fill="#fff" d="M202 126c18-17 40-16 55 2-2 40-12 58-31 58-19 0-27-19-24-60Zm77-2c18-15 39-12 53 7-4 38-15 56-34 54-18-3-25-22-19-61Z"/>
    <ellipse cx="231" cy="151" rx="12" ry="20" fill="#318bb5" stroke="none"/>
    <ellipse cx="305" cy="151" rx="12" ry="20" fill="#318bb5" stroke="none"/>
    <path fill="#7d3029" d="M226 201c27 19 55 18 82-2-1 34-15 52-41 52-25 0-39-17-41-50Z"/>
    <path fill="#f9f0dc" d="m238 208 12 16 10-18m22-1 10 17 11-19"/>
  </g>
</svg>
